<svg width="90" height="90" viewBox="0 0 90 90" fill="none" xmlns="http://www.w3.org/2000/svg">
<path d="M83.595 44.9209C83.595 66.2364 66.3154 83.5159 45 83.5159C23.6845 83.5159 6.40497 66.2364 6.40497 44.9209C6.40497 23.6055 23.6845 6.3259 45 6.3259C66.3154 6.3259 83.595 23.6055 83.595 44.9209Z" fill="#515151"/>
<path d="M83.595 44.9209C83.595 66.2364 66.3154 83.5159 45 83.5159C23.6845 83.5159 6.40497 66.2364 6.40497 44.9209C6.40497 23.6055 23.6845 6.3259 45 6.3259C66.3154 6.3259 83.595 23.6055 83.595 44.9209Z" fill="#515151"/>
<path fill-rule="evenodd" clip-rule="evenodd" d="M45 79.7197C64.2188 79.7197 79.7988 64.1397 79.7988 44.9209C79.7988 25.7021 64.2188 10.1221 45 10.1221C25.7811 10.1221 10.2012 25.7021 10.2012 44.9209C10.2012 64.1397 25.7811 79.7197 45 79.7197ZM45 83.5159C66.3154 83.5159 83.595 66.2363 83.595 44.9209C83.595 23.6055 66.3154 6.3259 45 6.3259C23.6845 6.3259 6.40497 23.6055 6.40497 44.9209C6.40497 66.2363 23.6845 83.5159 45 83.5159Z" fill="url(#paint0_linear_116_2)" fill-opacity="0.8"/>
<g filter="url(#filter0_i_116_2)">
<path d="M79.3242 44.9209C79.3242 63.8777 63.9567 79.2452 45 79.2452C26.0432 79.2452 10.6757 63.8777 10.6757 44.9209C10.6757 25.9641 26.0432 10.5966 45 10.5966C63.9567 10.5966 79.3242 25.9641 79.3242 44.9209Z" fill="#1F1F1F"/>
</g>
<g filter="url(#filter1_i_116_2)">
<path fill-rule="evenodd" clip-rule="evenodd" d="M79.7988 44.9209C79.7988 64.1398 64.2189 79.7197 45 79.7197C25.7812 79.7197 10.2012 64.1398 10.2012 44.9209C10.2012 25.7021 25.7812 10.1221 45 10.1221C64.2189 10.1221 79.7988 25.7021 79.7988 44.9209ZM45 79.2452C63.9568 79.2452 79.3243 63.8777 79.3243 44.9209C79.3243 25.9642 63.9568 10.5967 45 10.5967C26.0433 10.5967 10.6758 25.9642 10.6758 44.9209C10.6758 63.8777 26.0433 79.2452 45 79.2452Z" fill="#FFFAFA" fill-opacity="0.72"/>
</g>
<g style="mix-blend-mode:lighten">
<path d="M31.8579 13.1421C35.8536 10.8352 40.3862 9.62067 45 9.62067C49.6138 9.62067 54.1464 10.8352 58.1421 13.1421L49.7599 27.6604C48.3127 26.8249 46.6711 26.385 45 26.385C43.3289 26.385 41.6873 26.8249 40.2401 27.6604L31.8579 13.1421Z" fill="url(#paint1_radial_116_2)" fill-opacity="0.3"/>
</g>
<g style="mix-blend-mode:lighten">
<path d="M13.1421 58.1421C10.8352 54.1464 9.62067 49.6139 9.62067 45C9.62067 40.3862 10.8352 35.8536 13.1421 31.8579L27.6604 40.2401C26.8249 41.6873 26.385 43.3289 26.385 45C26.385 46.6711 26.8249 48.3127 27.6604 49.7599L13.1421 58.1421Z" fill="url(#paint2_radial_116_2)" fill-opacity="0.3"/>
</g>
<g style="mix-blend-mode:lighten">
<path d="M58.1421 76.8579C54.1464 79.1648 49.6138 80.3793 45 80.3793C40.3862 80.3793 35.8536 79.1648 31.8579 76.8579L40.2401 62.3396C41.6873 63.1751 43.3289 63.615 45 63.615C46.6711 63.615 48.3127 63.1751 49.7599 62.3396L58.1421 76.8579Z" fill="url(#paint3_radial_116_2)" fill-opacity="0.3"/>
</g>
<g style="mix-blend-mode:lighten">
<path d="M76.8579 31.8579C79.1648 35.8536 80.3793 40.3862 80.3793 45C80.3793 49.6138 79.1648 54.1464 76.8579 58.1421L62.3395 49.7599C63.1751 48.3127 63.6149 46.6711 63.6149 45C63.6149 43.3289 63.1751 41.6873 62.3395 40.2401L76.8579 31.8579Z" fill="url(#paint4_radial_116_2)" fill-opacity="0.3"/>
</g>
<path d="M26.7708 49.8213C25.2549 48.3054 24.4811 46.6535 24.4496 44.8659C24.4397 43.0999 25.1736 41.478 26.6514 40.0003C28.2148 38.4369 29.8904 37.6925 31.6783 37.7671C33.5093 37.8419 35.3452 38.7998 37.186 40.6406L49.1406 52.5952C51.0031 54.4577 51.961 56.2936 52.0142 58.103C52.0888 59.8909 51.3444 61.5665 49.781 63.1299C48.3032 64.6076 46.6706 65.3307 44.8829 65.2992C43.1169 65.2893 41.4759 64.5264 39.9599 63.0104C38.7471 61.7976 38.0083 60.609 37.7433 59.4446C37.5 58.3018 37.6016 57.2041 38.048 56.1513C38.516 55.1202 39.1998 54.1549 40.0992 53.2554L53.3345 40.0202C54.234 39.1207 55.1993 38.4369 56.2304 37.9689C57.2832 37.5225 58.3809 37.421 59.5237 37.6642C60.6881 37.9292 61.8767 38.668 63.0895 39.8808C64.6055 41.3968 65.3684 43.0378 65.3783 44.8038C65.4098 46.5915 64.6867 48.2242 63.209 49.7019C61.6456 51.2653 59.9592 52.0204 58.1499 51.9672C56.362 51.8926 54.5368 50.924 52.6743 49.0616L40.7197 37.1069C38.8789 35.2661 37.9103 33.4409 37.8141 31.6313C37.7609 29.822 38.516 28.1357 40.0794 26.5723C41.5571 25.0946 43.179 24.3606 44.945 24.3705C46.7326 24.402 48.3845 25.1758 49.9004 26.6918C51.1132 27.9045 51.8413 29.0823 52.0845 30.2251C52.3495 31.3895 52.2479 32.4873 51.7799 33.5184C51.3335 34.5712 50.6606 35.5473 49.7611 36.4468L36.5258 49.682C35.6264 50.5815 34.6502 51.2544 33.5975 51.7008C32.5664 52.1688 31.4686 52.2704 30.3042 52.0055C29.1614 51.7622 27.9836 51.0341 26.7708 49.8213ZM28.9874 47.6048C29.8321 48.4494 30.6957 48.8419 31.5783 48.7822C32.504 48.7227 33.3738 48.2861 34.1876 47.4723L47.5514 34.1085C48.3652 33.2947 48.7911 32.4357 48.8291 31.5314C48.9102 30.6273 48.5285 29.753 47.6839 28.9083C46.9259 28.1504 46.0835 27.7149 45.1569 27.6021C44.2518 27.5109 43.3282 27.9364 42.3858 28.8787C41.4649 29.7996 41.0288 30.7556 41.0774 31.7465C41.1474 32.716 41.7564 33.7747 42.9042 34.9225L54.8588 46.8771C56.0066 48.0249 57.0653 48.6338 58.0348 48.7039C59.0257 48.7525 59.9816 48.3163 60.9025 47.3954C61.8448 46.4531 62.2596 45.5186 62.1467 44.5919C62.0555 43.6869 61.6309 42.8554 60.8729 42.0974C60.0283 41.2528 59.1431 40.8602 58.2174 40.9196C57.3348 40.9793 56.4865 41.4161 55.6727 42.2299L42.309 55.5936C41.4951 56.4075 41.0477 57.2664 40.9666 58.1705C40.9286 59.0748 41.3319 59.9492 42.1765 60.7938C42.9345 61.5518 43.766 61.9764 44.671 62.0676C45.5977 62.1805 46.5322 61.7657 47.4745 60.8234C48.3954 59.9025 48.8208 58.9573 48.7508 57.9878C48.7022 56.9969 48.104 55.9275 46.9562 54.7797L35.0016 42.8251C33.8537 41.6773 32.7844 41.0791 31.7934 41.0304C30.8239 40.9604 29.8787 41.3859 28.9578 42.3068C28.0155 43.2491 27.59 44.1727 27.6812 45.0778C27.794 46.0044 28.2294 46.8468 28.9874 47.6048Z" fill="url(#paint5_linear_116_2)"/>
<defs>
<filter id="filter0_i_116_2" x="10.6757" y="10.5966" width="68.6485" height="68.6485" filterUnits="userSpaceOnUse" color-interpolation-filters="sRGB">
<feFlood flood-opacity="0" result="BackgroundImageFix"/>
<feBlend mode="normal" in="SourceGraphic" in2="BackgroundImageFix" result="shape"/>
<feColorMatrix in="SourceAlpha" type="matrix" values="0 0 0 0 0 0 0 0 0 0 0 0 0 0 0 0 0 0 127 0" result="hardAlpha"/>
<feOffset/>
<feGaussianBlur stdDeviation="34.1111"/>
<feComposite in2="hardAlpha" operator="arithmetic" k2="-1" k3="1"/>
<feColorMatrix type="matrix" values="0 0 0 0 0 0 0 0 0 0 0 0 0 0 0 0 0 0 0.6 0"/>
<feBlend mode="normal" in2="shape" result="effect1_innerShadow_116_2"/>
</filter>
<filter id="filter1_i_116_2" x="10.2012" y="10.1221" width="69.5976" height="69.5976" filterUnits="userSpaceOnUse" color-interpolation-filters="sRGB">
<feFlood flood-opacity="0" result="BackgroundImageFix"/>
<feBlend mode="normal" in="SourceGraphic" in2="BackgroundImageFix" result="shape"/>
<feColorMatrix in="SourceAlpha" type="matrix" values="0 0 0 0 0 0 0 0 0 0 0 0 0 0 0 0 0 0 127 0" result="hardAlpha"/>
<feOffset/>
<feGaussianBlur stdDeviation="34.1111"/>
<feComposite in2="hardAlpha" operator="arithmetic" k2="-1" k3="1"/>
<feColorMatrix type="matrix" values="0 0 0 0 0 0 0 0 0 0 0 0 0 0 0 0 0 0 0.6 0"/>
<feBlend mode="normal" in2="shape" result="effect1_innerShadow_116_2"/>
</filter>
<linearGradient id="paint0_linear_116_2" x1="45" y1="6.3259" x2="45" y2="83.5159" gradientUnits="userSpaceOnUse">
<stop stop-color="white"/>
<stop offset="1" stop-color="#636363"/>
</linearGradient>
<radialGradient id="paint1_radial_116_2" cx="0" cy="0" r="1" gradientUnits="userSpaceOnUse" gradientTransform="translate(45 35.9049) rotate(-45) scale(26.2842)">
<stop stop-color="white" stop-opacity="0.54"/>
<stop offset="1" stop-color="white" stop-opacity="0"/>
</radialGradient>
<radialGradient id="paint2_radial_116_2" cx="0" cy="0" r="1" gradientUnits="userSpaceOnUse" gradientTransform="translate(35.9049 45) rotate(-135) scale(26.2842)">
<stop stop-color="white" stop-opacity="0.54"/>
<stop offset="1" stop-color="white" stop-opacity="0"/>
</radialGradient>
<radialGradient id="paint3_radial_116_2" cx="0" cy="0" r="1" gradientUnits="userSpaceOnUse" gradientTransform="translate(45 54.0951) rotate(135) scale(26.2842)">
<stop stop-color="white" stop-opacity="0.54"/>
<stop offset="1" stop-color="white" stop-opacity="0"/>
</radialGradient>
<radialGradient id="paint4_radial_116_2" cx="0" cy="0" r="1" gradientUnits="userSpaceOnUse" gradientTransform="translate(54.0951 45) rotate(45) scale(26.2842)">
<stop stop-color="white" stop-opacity="0.54"/>
<stop offset="1" stop-color="white" stop-opacity="0"/>
</radialGradient>
<linearGradient id="paint5_linear_116_2" x1="44.9103" y1="21.7016" x2="44.9103" y2="67.9682" gradientUnits="userSpaceOnUse">
<stop stop-color="white"/>
<stop offset="1" stop-color="#A3A3A3"/>
</linearGradient>
</defs>
</svg>
